/* XPM */
static char *_c0d4ada340245dc91d7b45ad39e6955HDL41djw8vMy5J9D[] = {
/* columns rows colors chars-per-pixel */
"50 50 3 1 ",
"  c #2C5B4F",
". c #2C5C4F",
"X c #2C5C50",
/* pixels */
".. ...............................................",
".X ...............................................",
" .                                                ",
".. ...............................................",
".. ...............................................",
".. ...............................................",
".. ...............................................",
".. ...............................................",
".. ...............................................",
".. ...............................................",
".. ...............................................",
".. ...............................................",
".. ...............................................",
".. ...............................................",
".. ...............................................",
".. ...............................................",
".. ...............................................",
".. ...............................................",
".. ...............................................",
".. ...............................................",
".. ...............................................",
".. ...............................................",
".. ...............................................",
".. ...............................................",
".. ...............................................",
".. ...............................................",
".. ...............................................",
".. ...............................................",
".. ...............................................",
".. ...............................................",
".. ...............................................",
".. ...............................................",
".. ...............................................",
".. ...............................................",
".. ...............................................",
".. ...............................................",
".. ...............................................",
".. ...............................................",
".. ...............................................",
".. ...............................................",
".. ...............................................",
".. ...............................................",
".. ...............................................",
".. ...............................................",
".. ...............................................",
".. ...............................................",
".. ...............................................",
"..                                              . ",
".. ............................................   ",
" .                                                "
};
