/* XPM */
static char *a10ccf247c9b40079eb6e3af50c62004iUESzrA6SRwBFPiW[] = {
/* columns rows colors chars-per-pixel */
"50 50 197 2 ",
"   c #000000",
".  c #030F00",
"X  c #131A0A",
"o  c #24231F",
"O  c #0F292A",
"+  c #262527",
"@  c #342E2D",
"#  c #30302A",
"$  c #233435",
"%  c #383837",
"&  c #473A3A",
"*  c #7B3C3B",
"=  c #5A423E",
"-  c #1D4243",
";  c #2D4443",
":  c #3B4546",
">  c #2A5C4F",
",  c #2D5E51",
"<  c #3E5354",
"1  c #326255",
"2  c #356458",
"3  c #3B665A",
"4  c #3D695E",
"5  c #3F6C60",
"6  c #474748",
"7  c #4D5253",
"8  c #575758",
"9  c #654544",
"0  c #794949",
"q  c #6E5B5C",
"w  c #416A5F",
"e  c #436D62",
"r  c #496E64",
"t  c #5A6967",
"y  c #4B7269",
"u  c #55756C",
"i  c #54756D",
"p  c #557B72",
"a  c #5C7C74",
"s  c #666665",
"d  c #796C6B",
"f  c #6B6C76",
"g  c #647D77",
"h  c #777679",
"j  c #A83E3C",
"k  c #CA3E3B",
"l  c #AC423F",
"z  c #BC413E",
"x  c #C3413E",
"c  c #CC413E",
"v  c #D0413E",
"b  c #834647",
"n  c #84565A",
"m  c #A44746",
"M  c #AF5458",
"N  c #9B787C",
"B  c #BD6165",
"V  c #A37477",
"C  c #C34341",
"Z  c #CE4442",
"A  c #D14544",
"S  c #D34846",
"D  c #D54A4A",
"F  c #D94D4E",
"G  c #C14F50",
"H  c #DD5254",
"J  c #DC575C",
"K  c #E25457",
"L  c #E35559",
"P  c #E7585C",
"I  c #E95A5E",
"U  c #CC5B60",
"Y  c #E65D63",
"T  c #ED5D63",
"R  c #F05F65",
"E  c #D8646A",
"W  c #D46A71",
"Q  c #EE6166",
"!  c #EE636A",
"~  c #ED696F",
"^  c #F26167",
"/  c #F1666C",
"(  c #F0696E",
")  c #E16C73",
"_  c #ED6C73",
"`  c #F06C72",
"'  c #ED767D",
"]  c #F1747A",
"[  c #668179",
"{  c #6D837C",
"}  c #70857F",
"|  c #80817E",
" . c #9B7C81",
".. c #BC7C86",
"X. c #CA7B88",
"o. c #D67F8B",
"O. c #E47A85",
"+. c #EE7B83",
"@. c #F27C83",
"#. c #F27F88",
"$. c #6D8881",
"%. c #778985",
"&. c #7D918D",
"*. c #888889",
"=. c #9A8589",
"-. c #84918F",
";. c #8A8B93",
":. c #829591",
">. c #8B9797",
",. c #939898",
"<. c #9B9B9D",
"1. c #999AA4",
"2. c #9EA3A5",
"3. c #9FA2AB",
"4. c #9EA0B4",
"5. c #A1A0A4",
"6. c #A6A7AB",
"7. c #AAAAAD",
"8. c #A4A9B7",
"9. c #ACADB1",
"0. c #A9ABBE",
"q. c #B3B2B5",
"w. c #B3B5BB",
"e. c #B7B8BA",
"r. c #CE8696",
"t. c #D88A9B",
"y. c #EB818C",
"u. c #F28087",
"i. c #F2828B",
"p. c #EA8997",
"a. c #EE8C9A",
"s. c #F68590",
"d. c #F28A95",
"f. c #F38E9B",
"g. c #F2919E",
"h. c #D197A2",
"j. c #E794A6",
"k. c #F394A3",
"l. c #F599A6",
"z. c #F39BAC",
"x. c #F69DB0",
"c. c #CEADB5",
"v. c #F4A2AD",
"b. c #E5ACB7",
"n. c #F4A4B3",
"m. c #F7A4B7",
"M. c #F5AAB5",
"N. c #F5ACBB",
"B. c #F5B6BF",
"V. c #ABADC1",
"C. c #AEB1C4",
"Z. c #B3B5C5",
"A. c #B6B8C3",
"S. c #BBBCC3",
"D. c #B6B9C9",
"F. c #BABCCB",
"G. c #F6B6C1",
"H. c #F6BDC7",
"J. c #BEC1C5",
"K. c #BEC0CE",
"L. c #C4C6C9",
"P. c #C4C5CC",
"I. c #C3C5D1",
"U. c #C7C9D4",
"Y. c #CCCDD4",
"T. c #CDCCD9",
"R. c #D2CCD2",
"E. c #CED2D6",
"W. c #CED1D8",
"Q. c #D2D4DA",
"!. c #D6D9DE",
"~. c #E7CACF",
"^. c #F6C1C7",
"/. c #F6C4CC",
"(. c #F8C4CD",
"). c #E1CED1",
"_. c #F7CBD2",
"`. c #F9CCD4",
"'. c #EFD5D9",
"]. c #F7D4D9",
"[. c #F9D4DA",
"{. c #DBDCE2",
"}. c #DBDAE4",
"|. c #FBDDE1",
" X c #E5E5EA",
".X c #E6E5EA",
"XX c #F6E4E6",
"oX c #FBE2E5",
"OX c #FBE6E9",
"+X c #FBEAEC",
"@X c #EDEDF2",
"#X c #F7EFF1",
"$X c #FAEFF1",
"%X c #F4F3F7",
"&X c #FAF2F4",
"*X c #F9F5F9",
"=X c #FCFBFE",
/* pixels */
"> > > > > > > > > > > > > > > > > > > > > > > > > > > > > > > > > > > > > > > > > > > > > > > > > > ",
"> > > > > > > > > > > > > > > > > > > > > > > > > > > > > > > > > > > > > > > > > > > > > > > > > > ",
"> > > > > > > > > > > > > > > > > > > > > > > > > > > > > > > > > > > > > > > > > > > > > > > > > > ",
"> > > > > > > > > > > > > > > > > > > > > > > > > > > > > > > > > > > > > > > > > > > > > > > > > > ",
"> > > > > > > > > > > > > > > > > > > > > > > > > > > > > > > > > > > > > > > > > > > > > > > > > > ",
"> > > > > > > > > > > > > > > > > > > > > > > > > > > > > > > > > > > > > > > > > > > > > > > > > > ",
"> > > > > > > > > > > > > > > > > > > > > r } ,.,.,.,.-.u , > > > > > > > > > > > > > > > > > > > > ",
"> > > > > > > > > > > > > > > > > 2 %.q.).'.OXOXOXoX[.`.H.b.h.=.> > > > > > > > > > > > > > > > > > ",
"> > > > > > > > > > > > > > > > a R.OX&X&XOX[.[.`.(.H.B.M.n.n.z.j...> > > > > > > > > > > > > > > > ",
"> > > > > > > > > > > > > > e c.|.+X+XOXOX|.(.G.M.M.m.m.l.k.a.p.g.k.p.d > > > > > > > > > > > > > > ",
"> > > > > > > > > > > > > r ).$X|.|.|.oXoX`.G.M.n.v.x.l.g.i.+.@.u.y.f.k...> > > > > > > > > > > > > ",
"> > > > > > > > > > > > y '.OXoX|.|.[.[.`.H.N.n.v.l.l.f.@.] _ _ _ _ +.O.g.t.> > > > > > > > > > > > ",
"> > > > > > > > > > > u '.oXoXOX+XoX[._.(.^.M.v.l.g.d.i.] ( ! / R R T _ +.p.p.3 > > > > > > > > > > ",
"> > > > > > > > > > r ~.oXXX+X$X$XOX`.^.[.`.M.l.d.u.@.] ` ( Q Q R T R T ~ +.g.r.3 > > > > > > > > > ",
"> > > > > > > > > 3 c.|.|.+X#X*X*X+X_.B.^.B.l.g.i.] ` ` ( ! / T T R T T T Q ' d.X., > > > > > > > > ",
"> > > > > > > > > *.`.].|.OX%X*X&XOX^.v.v.g.d.i.@.` ( ( ! Q ^ R T T ^ T T T ! +.p.N > > > > > > > > ",
"> > > > > > > , e b././.].XX#X#X+X].M.g.d.u.] ] ] ] ( ! ! Q Q T I ^ T T R T T ! +.r.g , > > > > > > ",
"> > > > > > > ,  .m.N.G._.XXOX|._.M.l.d.u.] ( ( ( ( ( ! ^ T I P I I I T T T T T _ y.V 1 > > > > > > ",
"> > > > > > , 5 h.x.n.N.^.].].^.M.g.d.u.] ( ^ R T T T Y Y L H K H H L L T T T T T @.X.p > > > > > > ",
"> > > > > > , { j.x.z.n.B.H.B.v.d.u.@._ ! Q T I P P L H H F D S D D F H K I T R T ~ O.| > > > > > > ",
"> > > > > > > =.x.z.x.x.n.n.z.f.u.] ` ! Q I P P H H H H S S S c Z Z A S F K I T ^ T +.V 1 > > > > > ",
"> > > > > > 5 ..x.z.z.z.z.z.g.i.] ( Q Q T P K K H H F D c c Z c Z c c Z A F L T Y T ' B r > > > > > ",
"> > > > > > p o.z.z.z.z.z.k.d.] ( Q T T P L K H F D S Z c c x c c c c c c A F L T T Q W p > > > > > ",
"> > > > > > p r.x.z.z.j.g.s.@.( Q Q T I P P K F S v c c c c c c c c c c c A A H T T T E [ > > > > > ",
"> > > > > > a t.v.l.l.k.d.@.` Q Q Q I P L K H S v c k k k k c c c c c c c Z A D L T ! E [ > > > > > ",
"> > > > > > p X.l.g.f.d.#.] / R T Q I L K K S c c c k k k c c c c c Z c c c A D L T ! E { > > > > > ",
"> > > > > > p  .i.s.y.u.] _ R R R I Y L H D c v c c x k c c c c c c c c c Z Z D L Y ( W [ > > > > > ",
"> > > > > > y 1.5.W ] ] ~ ^ T R ^ I J m 0 0 0 b l x c c c c c c c c k c c c c D L / ) n y > > > > > ",
"> > > > > > 4 f 5.=.B _ / ! Q Q ^ J 9 7 % O $ 6 ; * x c c k c c c c k c c k v F Y B 9 O 4 > > > > > ",
"> > > > > > > $.e.h t n U Y Q ~ I b < 8 <.q.<.6 % - * c c x c c c k c c c A A G b   : %.> > > > > > ",
"> > > > > > > p .XR.s : 8 q M U M : q L.Q.L.E.E.d # $ l v c c k c c k k C m 0 O   h Y.:.> > > > > > ",
"> > > > > > > 4 e.=X.X<.6 6 7 8 8 @ 7.Y.9.q.>.9.L.8 $ * x x x z z j l b &     8 9.@X!.e > > > > > > ",
"> > > > > > > > g @X=X%XY.;.8 & 8 & 9.P.T.D.Z.f Z.1.o & = 9 & & % O     6 *.q.{..X@X2.> > > > > > > ",
"> > > > > > > > 5 C.=X%X%X@XR.6.7 @ 7.S.F.0.V.;.,.8.+ %         @ s *.9.Y.{.{.{..XQ.r > > > > > > > ",
"> > > > > > > > , a .X=X%X{.T.T.,.  ;.S.q.A.4.f 9.;.o 6 1.6.9.w.S.P.I.I.K.I.E.{.@X%.> > > > > > > > ",
"> > > > > > > > > > $.*X%X{.P.0.S.s   2.q.6.;.6.3.6   1.}.U.I.D.Z.V.V.Z.I.E.!.@X:.4 > > > > > > > > ",
"> > > > > > > > > > r 2.%X.XT.F.Z.w.s   t *.>.g +   *.T.V.4.4.V.V.V.D.I.E.Q..X6.y > > > > > > > > > ",
"> > > > > > > > > > > u q.@X!.T.D.Z.S.<.8 % . X s 6.I.V.0.V.V.C.Z.F.I.W.E.{.Y.y > > > > > > > > > > ",
"> > > > > > > > > > > > u 7..X}.U.K.D.K.S.S.J.w.I.I.V.V.C.Z.D.D.F.T.T.W.{.U.w > > > > > > > > > > > ",
"> > > > > > > > > > > > > i <.!..XQ.T.P.F.F.K.K.Z.Z.D.D.D.F.K.U.T.W.!.{.e.2 > > > > > > > > > > > > ",
"> > > > > > > > > > > > > > 4 &.J..X{.E.Y.U.K.K.U.K.I.U.U.U.E.E.!.{.U.&.> > > > > > > > > > > > > > ",
"> > > > > > > > > > > > > > > > i >.J.E.!.{.Q.E.W.W.E.E.!.!.{.!.L.,.r > > > > > > > > > > > > > > > ",
"> > > > > > > > > > > > > > > > > > i &.2.J.K.Y.W.Q.E.E.Y.J.7.:.[ > > > > > > > > > > > > > > > > > ",
"> > > > > > > > > > > > > > > > > > > > 2 y [ &.&.:.&.&.{ p 4 > > > > > > > > > > > > > > > > > > > ",
"> > > > > > > > > > > > > > > > > > > > > > > > , > > > > > > > > > > > > > > > > > > > > > > > > > ",
"> > > > > > > > > > > > > > > > > > > > > > > > > > > > > > > > > > > > > > > > > > > > > > > > > > ",
"> > > > > > > > > > > > > > > > > > > > > > > > > > > > > > > > > > > > > > > > > > > > > > > > > > ",
"> > > > > > > > > > > > > > > > > > > > > > > > > > > > > > > > > > > > > > > > > > > > > > > > > > ",
"> > > > > > > > > > > > > > > > > > > > > > > > > > > > > > > > > > > > > > > > > > > > > > > > > > ",
"> > > > > > > > > > > > > > > > > > > > > > > > > > > > > > > > > > > > > > > > > > > > > > > > > > "
};
