/* XPM */
static char *_9d385c7e2484349eb8249836b64f11eqHt1GWxxKcWhJ5Av[] = {
/* columns rows colors chars-per-pixel */
"50 50 256 2 ",
"   c #0B0305",
".  c #31250B",
"X  c #2A2421",
"o  c #513214",
"O  c #653E07",
"+  c #5A2219",
"@  c #544507",
"#  c #73570D",
"$  c #7E6817",
"%  c #49492C",
"&  c #67572C",
"*  c #706532",
"=  c #3E3E40",
"-  c #345061",
";  c #3A4A40",
":  c #52574C",
">  c #70706B",
",  c #655F50",
"<  c #990700",
"1  c #9E1404",
"2  c #AA1400",
"3  c #882F00",
"4  c #B13315",
"5  c #B03428",
"6  c #9C3B2B",
"7  c #CD310F",
"8  c #E03A1F",
"9  c #8B5503",
"0  c #AE5004",
"q  c #876704",
"w  c #956B02",
"e  c #8F740E",
"r  c #AB7908",
"t  c #B54831",
"y  c #8A6922",
"u  c #93762F",
"i  c #966B33",
"p  c #CF530C",
"a  c #F14D19",
"s  c #D07008",
"d  c #C54525",
"f  c #D05432",
"g  c #E94926",
"h  c #FB562B",
"j  c #F95A35",
"k  c #EF5330",
"l  c #F4663A",
"z  c #8C794F",
"x  c #AB604C",
"c  c #CE6F56",
"v  c #F06B52",
"b  c #D9796C",
"n  c #6E8861",
"m  c #AD910E",
"M  c #B5A50F",
"N  c #968632",
"B  c #AF9231",
"V  c #B8A728",
"C  c #BBA63B",
"Z  c #968200",
"A  c #D79309",
"S  c #E9980A",
"D  c #C5A806",
"F  c #D8A903",
"G  c #D6B805",
"H  c #D5B818",
"J  c #C7AF14",
"K  c #E4AA05",
"L  c #E8B706",
"P  c #E3BA16",
"I  c #EAAD0B",
"U  c #C5972B",
"Y  c #E59430",
"T  c #C9A929",
"R  c #D7B62A",
"E  c #C8A938",
"W  c #D7B937",
"Q  c #CDB232",
"!  c #E8BC24",
"~  c #D8C900",
"^  c #D9C61D",
"/  c #E7C905",
"(  c #F3C504",
")  c #EAD602",
"_  c #F6DA05",
"`  c #E7C717",
"'  c #E9D818",
"]  c #FEDA1A",
"[  c #F4CC19",
"{  c #ECE303",
"}  c #F3E302",
"|  c #FCE403",
" . c #FCEB0C",
".. c #F8E806",
"X. c #FBF308",
"o. c #FCE818",
"O. c #F7EE16",
"+. c #DAC934",
"@. c #EAC829",
"#. c #E9D827",
"$. c #F9DA2A",
"%. c #EBD637",
"&. c #FBD734",
"*. c #EFC833",
"=. c #FCE827",
"-. c #FEF428",
";. c #FBE736",
":. c #F5ED32",
">. c #9C8449",
",. c #98904E",
"<. c #AC944D",
"1. c #BAA65A",
"2. c #B2A64F",
"3. c #93926A",
"4. c #AE986E",
"5. c #B3AA70",
"6. c #92A261",
"7. c #D49045",
"8. c #D7B947",
"9. c #CAB657",
"0. c #CEB54F",
"q. c #CD8774",
"w. c #F68C71",
"e. c #C9B767",
"r. c #D1B970",
"t. c #E6B771",
"y. c #D7C958",
"u. c #D8C543",
"i. c #E4D457",
"p. c #EED54D",
"a. c #F8E647",
"s. c #FEF548",
"d. c #F9E554",
"f. c #FDF65A",
"g. c #EAE34D",
"h. c #D9C965",
"j. c #D2C576",
"k. c #CCC970",
"l. c #E8D56F",
"z. c #FEF963",
"x. c #F0E873",
"c. c #B4C55F",
"v. c #4C6887",
"b. c #507BB5",
"n. c #647AB3",
"m. c #597DC4",
"M. c #386991",
"N. c #748E8E",
"B. c #5D8BBB",
"V. c #6595BB",
"C. c #7899B8",
"Z. c #6E8BAE",
"A. c #7BA5BA",
"S. c #5C97C9",
"D. c #5A8BCA",
"F. c #6598C7",
"G. c #7499C5",
"H. c #669AD6",
"J. c #6687C3",
"K. c #68A4D6",
"L. c #76A8D7",
"P. c #74A5CA",
"I. c #5EA4E5",
"U. c #66A9E7",
"Y. c #72AEE7",
"T. c #5B9FDE",
"R. c #97908C",
"E. c #BCAE92",
"W. c #869CB5",
"Q. c #B1B3B1",
"!. c #ADA2A5",
"~. c #DE8F86",
"^. c #C7B68C",
"/. c #D1B88F",
"(. c #F7AD90",
"). c #C7BDAF",
"_. c #F2B4A9",
"`. c #EA9D8D",
"'. c #B9C78C",
"]. c #D6C897",
"[. c #D2C88F",
"{. c #E6D79A",
"}. c #EFD091",
"|. c #FFF987",
" X c #F9ED93",
".X c #DCD4B9",
"XX c #D5CBAD",
"oX c #E6DAA8",
"OX c #FDC7B8",
"+X c #FCD6B8",
"@X c #E8CDB4",
"#X c #F7E4A9",
"$X c #EBE5B8",
"%X c #FFFABB",
"&X c #F6EBB1",
"*X c #DBE295",
"=X c #8FADCE",
"-X c #B1B9CF",
";X c #8EACD3",
":X c #B7CDDB",
">X c #97C4ED",
",X c #B0D0EB",
"<X c #AED7EC",
"1X c #D1CDC9",
"2X c #E8DDC6",
"3X c #FEDAD6",
"4X c #F7D6CD",
"5X c #EAE5CB",
"6X c #FAE6C5",
"7X c #FCF7CA",
"8X c #E9E6DA",
"9X c #FAEDD8",
"0X c #FEFCDC",
"qX c #FCF7D8",
"wX c #D9DBE8",
"eX c #C8DAE9",
"rX c #E4DEE9",
"tX c #DCE8EC",
"yX c #CAE9FC",
"uX c #D5E8FA",
"iX c #DBF7FF",
"pX c #CEF7FF",
"aX c #E5E5E4",
"sX c #EBEAE4",
"dX c #E4EBEB",
"fX c #ECECEC",
"gX c #E9E5E8",
"hX c #F3EDEC",
"jX c #F9EBE6",
"kX c #EEF4EC",
"lX c #EDF4EA",
"zX c #F3F3E5",
"xX c #FCF4E5",
"cX c #FFFEE5",
"vX c #F3F3ED",
"bX c #FBF3EC",
"nX c #FDFDED",
"mX c #F1F8EC",
"MX c #EDEDF3",
"NX c #EDEDFA",
"BX c #E7EAF5",
"VX c #F4EEF4",
"CX c #F4EDFC",
"ZX c #FCEFF4",
"AX c #EDF3F4",
"SX c #EDF3FC",
"DX c #EBFCFD",
"FX c #E8F8F9",
"GX c #F3F2F4",
"HX c #FBF4F4",
"JX c #F6F9F5",
"KX c #FEFBF3",
"LX c #F3F3FB",
"PX c #FCF5FB",
"IX c #F4FBFD",
"UX c #FDFCFD",
/* pixels */
"kXzXxXxXzXzXkXkXGXAXSXBXBXIXZXrXPXgX9XPXCXNXCXAX2XcX7XoX X|.|. X&XqXUXBXBXIXSXaXKX8XZXHXgXGXUXtXUXUX",
"kXGXhXvXvXzXmXkXJXMXAXIXDXIXHXMXaXhXbXbXNXBXCXzXcX$XoX[.k.y.i.y.}.&XcXzXNXSXdXJXfXHXZXZXHXAXMXIXMXAX",
"GXAXCXVXGXvXkXvXGXvXJXAXdXFXUXUXIXIXUXzXmXlXzXqX7X].5X7X Xx.^ a.8.h.#XqXnXbXaXmXtXSXAXAXUXkXrXUXfXfX",
"LXGXGXLXGXAXAXvXbXvXvXdXdXDXFXwXuXuXeXtXFXJX7X%X].$XcXcX7X|.#.=.z.p.t.}.OX+X9XKXIXFXFXFXSXAXjXhXUXUX",
"GXGXVXGXAXAXGXvXbXgXsXIXSXuX-XZ.C.Z.C.>XeXFX7X*X{.7XcXcX7X|.a.$.Y s p 4 t c `.OXxXUXUXFXBXGXHXjXhXfX",
"zXGXAXAXAXAXvXvXHXhXPXIX:XC.Z.W.G.m.S.F.A.:X5X[. X%X7X7X7X|.d.A 3 0 d f f 5 d x _.HXPXNXSXAXjXPXfXsX",
"kXvXvXGXGXAXkXGXVXIXSX:XC.Z.;XpXyX>XK.S.B.P.Q.[.x.x. X%X Xt.A 0 t.OX3X_.w.f f f c _.jXPXLXMXVXJXUXUX",
"vXvXGXVXGXAXvXGXNXSXeXW.Z.>XDXDXDX<XK.Y.Y.B.N.'.x.a.f.p.i.8.0 c 9XPXZXZX(.k h l d c OXHXVXSXUXaXfXGX",
"GXLXVXLXGXGXGXCXIXeXW.B.L.pXDXFXiXyXP.K.U.K.W.n h.#.;.;.R 3 f +XHXIXPXxX(.f 7 h l f ~.VXUXSXAXdXfXfX",
"NXGXZXVXZXVXGXSXSX:XG.F.L.yXDXDXpX<XV.K.I.T.L.N.c.g.-.] A 0 l +XPXPXbXOXw.j a h k f q.3XPXSXFXAXUXUX",
"vXGXVXGXVXvXVXAXuX=XV.H.K.>XpXiX>XL.S.K.I.I.Y.C.6.i.:.I s p l b 4XOX(.v k h a a h t c 4XPXNXGXAXAXfX",
"vXvXVXZXHXhXGXSXSX=XS.Y.T.F.;X;XP.K.S.K.I.I.U.C.6.y.&.A p k j j v v l g g h h a j d b 3XPXGXGXvXfXfX",
"zXzXvXVXvXvXvXLXSX=XD.Y.T.S.F.P.H.K.K.K.U.U.U.Z.,.0.! A p a h a 8 k j k h h h h k t q.9XUXLXvXbXUXUX",
"zXxXzXGXGXGXvXVXBX=XB.U.U.U.K.P.K.K.K.S.H.Y.H.Z.5.8.! S s p a h j h 8 8 7 7 8 j f f /.jXGXSXHXhXhXfX",
"vXzXGXCXAXLXvXGXCX:XG.S.I.U.K.S.I.S.H.D.D.H.V.Q.*Xu.[ [ Y p g g g 8 4 1 < < 7 k f q.OXKXfXFXPXhXfXfX",
"VXGXLXAXGXVXVXGXUXuX;XV.S.S.B.M.K.B.D.b.m.n.Z.:X'.M M *.Y s 4 2 < < 2 2 < 1 4 f c (.xXUXtXBXUXsXUXUX",
"LXSXAXGXvXVXvXvXmXIXeX=XA.v.- - M.J.b.m.n.n.-X5Xr.i.e Q }.w.4 d 7 7 2 2 5 5 t x +X0XjXHXLXLXgXUXgXfX",
"NXSXvXzXvXvXbXvXsXJXFXDXeXN.; ; - Z.J.m.G.=XrX9X%X&X2.r.}.b 6 6 4 d 4 4 t ~._.6X$X9X4XPXZXCXsXhXkXVX",
"CXLXGXzXvXvXGXGXGXtXSXIX).: % % X Z.G.G.>XDXIXmX6XXX3.2X3X!.+ + x R.q.q._.4X4XoX*X[.XXJXZXIXGXVXUXUX",
"VXvXVXvXGXGXGXGXUXwXSXJX3.* N 2.: N.Z.B.;XiXIXaXUXXXR.wX-Xz .   , 1XbXqXZX4X}.k.l.h.E.xXPXPXHXGXgXfX",
"bXVXVXGXGXAXGXGXIXfXUX9X5.0.g.i.6.> v.v.W.uXdXlXKX!.> > = X = ,   -XmX7X].e.i.d.d.i.e.6XHXZX8XZXGXGX",
"jXbXVXLXAXAXkXAXLXGXKXoXe.d.;.R 2.R.!.W.:XJXlXqX].6.* & X : > , X 1XqX[.2.Q ;.=.;.%.9.$XnXZX8XKXUXUX",
"jXbXGXSXAXAXAXAXJXPX0X[.y.s.] G B [.KXQ.!.nX$Xj.l.l.y.2.* , =   R.9X#Xh.a.&.O.| o.@.e.qXHXLXAXUXaXaX",
"xXhXLXGXAXAXAXGXVXPX7Xk.u.%.~ G e k.&X& o {.}.u.a.s.f.y.# .     XX#X0.%.s. ...} o.+.j.nXNXNXIXlXJXJX",
"sXzXAXAXAXAXAXLXrXKXqXk.Q a.a.%.%.*.u.V m Q p.;.o.o./ a.<.  . .X/.U ^ =._ ..} { -.V &XUXSXIXGXsXHXJX",
"vXJXAXAXAXAXBXfXUXxX{.h.x.z.f.f.;.:.:.#.' #.o.] _ / #.Q # & ^.#XE J [ ( ) { { :.+.B .XHXtXNXJXHXaXgX",
"vXfXfXAXDXGXhXjX0X].k.x.z.f.z.z.;.o.-.-.O.X.| ) ` J C e * ].XXN T L ( ( o.-.#.g.C 1.2XZXBXVXjXbXKXJX",
"vXdXAXAXAXGXKXcXXXk.x.x.f.f.f.s.=.O.#.' { ..} / r m ,.> Q.1X2.2.+.P G G P R C B k.oXxXPXPXPXgXbXHXLX",
"JXAXLXAXfXhXxX6Xk.y.i.g.s.s.s.#.:.:.C M J =.=.` m t.E.R.aXxX4.2.B R @.I V 0.{.$XlXnXIXdXAXAXMXJXfXgX",
"JXGXLXLXBXhXqX{.2.u.m M :.s.{ { O.^ e @ e *.$.P U z R.-XJXnXoX1.# B R T B r.qXKXFXIXLXdXAXmXdXSXLXJX",
"hXhXGXBXCXUX6X5.y.V $ M g.#.{ X.{ J # . # W [ G 8.y ,.mXcX/./.}.4.r.8.W 8.r.5XsXgXIXLXfXmXmXdXAXJXJX",
"KXHXLXNXLXUX@X>.i.q e :.' M ~ X.X.' Z @ 9 U K K J 8.,.,.e.l.8.B #X}.C E 0.B 5.8XfXUXGXfXzXzXJXUXaXgX",
"fXGXGXLXCXZX_.# # ! =.] ] ) .. .) _ &.*.s 3 3 A H M $ J %.#.:.g.e.&Xl.U Q u.E 6.5XBXLXLXkXlXAXBXJXJX",
"GXJXHXGXVXPXjXx r &.=._ ) ~ ~ ~ ) _ o.] s + 3 S $.] _ -.O.O.-.#.9.t.0.U T W C u 5XVXLXDXkXlXAXAXLXGX",
"VXGXJXvXbXHXqX/.U &.=. ._ ) ~ ~ ) _  .o.S 0 r ]  .X. .{ ) =.=.R m B 7.8.<.B r..XgXMXGXkXlXkXAXGXgXgX",
"fXfXvXJXGXxX+Xr.E P / _ o.o. . .| | _  .] L ( O. .) | o.' H m U m E Q E r./.4XPXMXVXmXlXfXzXJXGXJXJX",
"HXGXJXJXhX8XXXe.8.V M G #.=.o. .| | { } O.O. .} ..) ( F D w # l.9.t.8.B }.qXUXBXFXmXmXfXNXLXJXvXJXJX",
"GXhXGXfXLXbX2XoXl.+.V M J ~ / / ) | X.} ..X...{ ) ~ D r m w y t.}.<.E 9.1.].UXIXAXmXAXCXCXCXHXvXsXaX",
"hXfXGXgXLXUXhX0X$Xk.k.2.m M D F ) _  . .} { .. ._ [ K K P U e y +Xi y 1.,.4.8XdXkXkXGXCXCXCXGXsXUXUX",
"hXHXKXfXCXLXgXHXzX5X7X{.e.8.` _ o._ }  . .} } | o.[ I I F F B y + o y >.,.).mXAXkXAXCXCXCXCXJXsXAXGX",
"HXhXGXAXLXNXCXSXlXJXsXxX&XN *.` _  ._ _ _ |  . .o.( K L K H R @ + . 3.XX5XnXJXLXdXUXVXgXPXPXdXUXaXaX",
"VXGXvXGXLXLXAXGXFXdXUXPX@X<.W P G / _ _ o. .) ( L L L L L P T N z , ^.9XxXHXNXLXUXhXHXUXfXVXIXtXUXUX",
"VXGXvXzXkXvXAXAXIXdXLXBXKX^.e u.G D L ( L ` ` ~ K K L F L R B /.9X).jXPXhXhXfXGXVXPXZXjXJXJXfXDXAXvX",
"VXHXvXzXkXzXvXAXmXIXSXwXUX6XN 0.p.H [ S m T W J @.L L L ! E 4.8XPXZXUXHXaXbXUXUXgXUXhXsXKXJXdXUXdXdX",
"CXVXvXzXmXzXGXvXzXvXUXNXMXKX$X<.u r U w # <.1.u Q R P ! m 9 E.UXVXBXPXZXsXmXzXsXUXfXPXUXsXfXIXdXUXUX",
"CXGXvXmXkXGXGXzXzXvXMXIXBXHXcXoX$ q u i i .X9X].<.w w m q # .XNXPXVXVXHXjXsXsXfXJXMXPXPXVXkXJXkXGXGX",
"CXAXGXGXLXCXCXGXhXxX8XIXIXAX8XcX,.i u u 3.fXIXbX^.y 9 B y 1.qXkXGXmXsXfXGXLXIXUXdXUXVXgXUXJXfXUXsXgX",
"CXCXVXLXCXLXCXZXsXsXPXIXwXUXJX8X/.z >.4..XIXLXUX3Xz <.1.>.^.lXJXaXJXKXzXLXIXCXwXIXgXJXUXgXkXUXsXUXUX",
"UXfXMXUXMXMXUXfXfXUXfXGXIXMXGXKX5XXXXX1XUXUXtXVXKX.X3.z XXzXvXfXJXmXaXPXJXgXUXLXgXUXAXfXLXGXsXUXMXfX",
"UXfXfXUXfXfXUXfXGXUXfXvXJXfXGXPXMXLXLXMXJXHXgXLXUXbX1XXXsXUXGXaXJXJXaXUXJXaXUXGXfXJXGXfXJXvXfXUXGXfX"
};
