/* XPM */
static char *_f3d6e0785a241f8e7a732b684499b27oONhkL9HPpQ1bvgP[] = {
/* columns rows colors chars-per-pixel */
"50 50 245 2 ",
"   c #020301",
".  c #0B0200",
"X  c #010A01",
"o  c #0D0C03",
"O  c #00060B",
"+  c #000B0C",
"@  c #0B0B09",
"#  c #130100",
"$  c #1C0000",
"%  c #140B01",
"&  c #1A0C03",
"*  c #03120C",
"=  c #09170A",
"-  c #14130B",
";  c #1D140A",
":  c #000D12",
">  c #000C1C",
",  c #000711",
"<  c #001314",
"1  c #011519",
"2  c #021B1C",
"3  c #071817",
"4  c #121B11",
"5  c #191512",
"6  c #250100",
"7  c #2A0101",
"8  c #260A08",
"9  c #330000",
"0  c #251707",
"q  c #2A1E12",
"w  c #072319",
"e  c #17261A",
"r  c #06220C",
"t  c #24291C",
"y  c #2B2316",
"u  c #001D25",
"i  c #001D2D",
"p  c #031724",
"a  c #151A23",
"s  c #000E24",
"d  c #02242E",
"f  c #072B27",
"g  c #192B22",
"h  c #0B332D",
"j  c #073127",
"k  c #173227",
"l  c #022632",
"z  c #0B2A34",
"x  c #022C3A",
"c  c #062A36",
"v  c #132B34",
"b  c #0C3332",
"n  c #0C333B",
"m  c #13323C",
"M  c #183A37",
"N  c #2B2B23",
"B  c #3A372D",
"V  c #263834",
"C  c #2E342D",
"Z  c #491F19",
"A  c #560E0C",
"S  c #7A140B",
"D  c #6B1A14",
"F  c #631B18",
"G  c #6E1711",
"H  c #4C2D1B",
"J  c #53221B",
"K  c #4E311F",
"L  c #6A261C",
"P  c #7C2115",
"I  c #78221C",
"U  c #4D2923",
"Y  c #52392E",
"T  c #732929",
"R  c #79382E",
"E  c #793B33",
"W  c #1B4336",
"Q  c #1E533F",
"!  c #1F402D",
"~  c #264336",
"^  c #2D4235",
"/  c #244539",
"(  c #224C3A",
")  c #2E4B3D",
"_  c #2A4537",
"`  c #3F4434",
"'  c #324E3E",
"]  c #3B4A3C",
"[  c #35443A",
"{  c #324836",
"}  c #43422F",
"|  c #464939",
" . c #4E513E",
".. c #5A492F",
"X. c #63493B",
"o. c #724233",
"O. c #615A3D",
"+. c #022A41",
"@. c #0B3544",
"#. c #1D3C42",
"$. c #1B3D4B",
"%. c #143947",
"&. c #172E40",
"*. c #223C45",
"=. c #2B3C4A",
"-. c #1D424C",
";. c #194354",
":. c #1F5D53",
">. c #195645",
",. c #254D43",
"<. c #2C4C43",
"1. c #2B4746",
"2. c #344B43",
"3. c #384E48",
"4. c #245346",
"5. c #2C5545",
"6. c #235A45",
"7. c #2C5A46",
"8. c #25564B",
"9. c #2B554B",
"0. c #265C4D",
"q. c #2B5B4E",
"w. c #335245",
"e. c #32554C",
"r. c #315A4D",
"t. c #365646",
"y. c #2A5750",
"u. c #275C51",
"i. c #2B5B51",
"p. c #2A5A56",
"a. c #325750",
"s. c #325C53",
"d. c #3B5D54",
"f. c #385E58",
"g. c #274B5C",
"h. c #2C614E",
"j. c #26614D",
"k. c #2D6253",
"l. c #2B645B",
"z. c #346354",
"x. c #34645A",
"c. c #3B635B",
"v. c #3A6656",
"b. c #33624E",
"n. c #534D42",
"m. c #4B5646",
"M. c #585747",
"N. c #47504B",
"B. c #675546",
"V. c #685A52",
"C. c #7D5D4E",
"Z. c #42645B",
"A. c #5A6452",
"S. c #7A664E",
"D. c #776556",
"F. c #6A624E",
"G. c #7B7664",
"H. c #7B7778",
"J. c #980A02",
"K. c #821B0E",
"L. c #8A160D",
"P. c #9A1306",
"I. c #9B1309",
"U. c #961309",
"Y. c #8A1D17",
"T. c #991916",
"R. c #850C01",
"E. c #AB0E01",
"W. c #A10902",
"Q. c #AB1202",
"!. c #A71407",
"~. c #A51A11",
"^. c #B21306",
"/. c #90241A",
"(. c #AC2114",
"). c #962822",
"_. c #89302B",
"`. c #A32626",
"'. c #83443B",
"]. c #915C52",
"[. c #846C53",
"{. c #847869",
"}. c #967866",
"|. c #877C76",
" X c #A6776F",
".X c #998477",
"XX c #9F836B",
"oX c #AE8E7A",
"OX c #AB9478",
"+X c #AB8E78",
"@X c #7D8182",
"#X c #AA9A84",
"$X c #B49682",
"%X c #BCA689",
"&X c #B9A996",
"*X c #BBB09F",
"=X c #AFA38B",
"-X c #BCB9A8",
";X c #C3AA8C",
":X c #C9B08B",
">X c #CAAD94",
",X c #CCB398",
"<X c #D2B69D",
"1X c #DEAD8F",
"2X c #EABC9A",
"3X c #C8B6A6",
"4X c #D5BFA4",
"5X c #EABEA5",
"6X c #E9C39E",
"7X c #D8C4A9",
"8X c #DCCBBA",
"9X c #D9D1BC",
"0X c #C0C1AF",
"qX c #EACCA7",
"wX c #F6C7A7",
"eX c #F2D2AC",
"rX c #E8CCB7",
"tX c #F7CDBA",
"yX c #EDD1B3",
"uX c #E5D2BA",
"iX c #F1D2B3",
"pX c #F4D6BB",
"aX c #FCD6BC",
"sX c #FDDCBC",
"dX c #F6DAB8",
"fX c #FEE3BA",
"gX c #D8CDC2",
"hX c #D8D4D1",
"jX c #E5D8C7",
"kX c #FDDCC4",
"lX c #F6D9C8",
"zX c #F3DDD0",
"xX c #FFE4C4",
"cX c #FEE4CB",
"vX c #F8E7C7",
"bX c #FFF1CB",
"nX c #FDEAD3",
"mX c #FFEDDB",
"MX c #F9E7D5",
"NX c #FFF2D4",
"BX c #FFF4D9",
"VX c #EEE5D1",
"CX c #FFF4E1",
"ZX c #FFFBE3",
"AX c #FFECE1",
/* pixels */
"q.i.i.q.q.q.i.q.i.q.q.q.i.q.i.q.i.i.q.q.7.7.7.7.t.r.q.q.q.q.q.q.r.i.a.a.y.i.i.q.q.r.a.a.r.q.q.q.q.q.",
"q.q.q.q.i.q.i.q.q.q.i.q.k.q.q.q.i.i.q.q.7.h.7.q.7.q.q.q.0.q.q.r.q.i.i.r.i.i.q.q.i.q.y.r.r.r.q.q.q.q.",
"i.i.q.i.q.i.q.q.q.i.q.i.q.q.i.i.i.i.q.0.0.7.q.q.r.q.q.q.q.q.q.7.q.u.u.i.q.i.u.u.q.i.r.i.r.y.r.i.q.i.",
"q.q.q.q.q.q.q.i.q.i.q.q.q.q.q.q.i.i.q.0.j.7.j.q.h.q.q.i.q.q.q.q.i.0.u.i.i.q.0.u.u.i.i.r.a.q.a.q.y.q.",
"q.q.q.i.i.i.q.q.q.i.q.q.q.i.i.q.q.q.9.j.7.j.0.0.i.i.i.i.r.r.9.q.u.u.q.8.8.i.u.i.u.8.i.i.i.9.i.a.i.q.",
"i.i.q.q.q.q.q.i.q.i.q.i.q.q.q.q.q.r.q.7.j.0.u.j.i.p.i.a.r.q.q.q.q.q.i.u.i.i.q.i.i.i.u.i.i.a.a.a.q.q.",
"q.q.i.q.q.q.q.i.q.q.i.q.i.q.q.i.r.q.q.q.6.0.j.u.i.i.a.i.q.r.q.q.q.i.i.r.a.i.a.r.i.i.i.u.i.p.i.i.a.q.",
"q.i.q.q.i.i.q.q.i.q.q.q.i.q.q.i.q.q.q.q.q.j.q.0.u.u.y.q.r.q.0.7.i.q.i.i.a.a.a.a.a.p.i.u.u.u.p.a.q.i.",
"q.q.i.q.q.i.q.q.k.i.q.q.q.i.q.8.:.l.x.p.4.4.8.p.y.u.i.i.q.q.0.0.9.k.h.4.q.s.d.s.a.a.i.u.u.i.p.y.i.q.",
"i.q.i.q.q.i.q.i.i.i.q.q.q.q.i.q.l.u.8.s.f.c.a.y.p.s.s.s.r.r.q.h.7.0.q.h.q.q.9.9.a.i.i.i.u.p.p.i.i.q.",
"q.i.q.q.q.q.i.q.i.q.q.q.i.z.i.u.:.:.y.3.3.3.3.2.2.2.2.<.2.' ' ' / 6.h.j.0.h.q.r.r.a.q.i.u.p.i.i.i.i.",
"q.q.q.i.i.q.q.q.i.q.q.i.i.z.k.i.>.l.d.V @ . . . . . . . . . X X ~ r.z.6.>.j.x.q.r.y.i.i.p.u.i.i.q.q.",
"i.q.q.q.q.i.q.i.q.i.q.i.z.i.i.q.p.r.| N 9 7 7 7 6 6 6 6 6 6 6 6 Y *.3.q.6.6.h.4.q.r.q.q.i.0.i.a.q.q.",
"i.q.i.q.q.q.h.i.q.q.q.k.z.i.8.5.v.g 8 J T I I Y.P P P Y.P P P L Z 5 N v.b.Q 6.h.q.q.8.i.u.i.i.a.q.i.",
"q.i.q.q.i.q.q.q.k.q.q.q.q.q.8.,.' q 9 F ).T.U.P.P.P.U.U.I.U.U.Y.F 8 y | 7.Q h.b.q.0.q.j.8.i.i.i.9.q.",
"i.q.q.i.q.q.q.q.q.q.i.s.i.9.4.) t H D S U.!.^.Q.Q.Q.Q.E.E.Q.Q.!.Y.F J N k 7.z.Q q.q.q.u.q.i.q.i.i.i.",
"u.i.q.q.h.7.7.q.q.h.i.z.y.s.s.e $ F Y.(.J.^.Q.^.E.^.Q.E.Q.!.Q.!.~.T.F # e r.c.8.q.q.q.i.i.i.u.0.i.q.",
"u.u.q.q.q.q.q.0.h.k.8.9.1.e.e.@ $ D /.(.W.Q.J.P.!.!.!.P.P.!.!.Q.W.I.I # e t.f.8.i.y.9.i.i.i.0.u.q.q.",
"u.i.q.q.q.7.0.q.0.k.u.i.s.c.Z.N $ L /.(.J.P.R.K.S K.S K.Y.T.W.J.~.Y.L # 5 e.c.y.q.i.p.i.y.p.0.u.q.i.",
"i.i.q.q.q.q.q.i.u.u.8.f.9.M V 4 8 A S L.L.`.T R E o.o.o.E _.`.(.).G Z # g M ,.9.i.i.i.i.i.i.i.u.0.q.",
"q.q.7.q.q.q.0.0.u.u.8.c.1.< X X   6 9 A G ].X.X.` ` ] | | Y T T A 6 $   < O < / q.q.u.0.i.u.i.q.i.q.",
"q.q.7.q.q.q.u.u.l.p.p.c.<.* X X @ D. X].J J B ' ' 5.5.<.N.n.Y U ].}.V.- 4 X 3 Z.e.q.q.0.i.p.i.q.i.q.",
"7.7.q.7.q.i.u.u.p.l.9.e.^ 4 o X - 3XAX X6 # o X X X X X X X $ $ ,XmX&X.   X + ^ t.q.0.j.i.i.i.i.q.q.",
"q.q.r.q.i.i.u.u.8.f.9.3.m. .| K . 3XAX$XH B.V.N.M.M.A.M.M.M.X.X.$XZX3X# N V.n.m.t.7.j.0.u.i.u.q.i.i.",
"q.j.q.q.0.0.i.u.i.s.<.X | VXuXS.. 7XfXfXyXdXMXlXlXtXkXrXnXcXdXiXiXBX,X& X.AXjX` X ( z.6.u.u.0.i.q.q.",
"0.q.0.q.q.i.u.i.i.d.w.X  .VXuX[.0 :XfXfXfXxXrXsXlXkXkXkXtX>XxXxXsXdX;XH C.lXjXn.X ( k.0.i.k.8.q.i.q.",
"q.0.q.i.i.i.i.u.z.r.~ X | jXNX7X4XfXfXqXdX:XY XXkXkXtXkXOXK <XiXfXsXiX>XrXMX8X} X W k.0.i.k.0.9.q.q.",
"q.h.q.0.0.8.i.q.h.q.~ = m.9XBXNXNXbXdX6XbX%X. [.kXaXyXkXO.. 7XbXiXcXnXkXmXAX8Xn.r ( k.0.k.p.0.9.q.i.",
"0.q.q.q.q.q.i.q.i.z.r.~ | G.G.D.S.7XxXeXBX,X# [.kXxXdXvXO.o 4XNXyXbX7XS.S.{.G.| ! 7.z.8.y.i.q.0.q.i.",
"q.q.7.q.q.q.i.u.8.z.f.3._ e o . - 3XNXdXvX=X0 [.kXkXdXyXS.0 ;XdXkXcX&X0 . o e C h.h.k.i.y.q.r.q.q.q.",
"7.q.0.q.q.q.0.u.8.i.a.d.t.g 4 t . G.#X7XvX7XOX<XwX5XwX6X:XOXiXxX7X.XG.q ; e w Z.k.l.p.p.p.r.q.7.q.q.",
"q.q.q.q.q.q.q.i.p.i.q.d.) X X & . % % =XnXVXnXlX5X1X6X2XfXxXxXxX#X% .   o o X ) s.u.p.p.s.s.q.7.q.q.",
"q.0.q.q.i.q.q.8.z.q.t.g  .=XOXXX$XB.& {.-X-X*X&X$XoXoX$X;X3X3X*X{.& X.;XXXoX#X` e q.s.0.u.i.7.q.q.q.",
"j.q.q.q.q.q.u.q.4.r.' 4 O.9XcXcXMX{.. - - X   . # . # . . .     ; . }.mXaXxXjXM.= ) x.8.u.k.7.q.q.q.",
"h.0.q.q.q.i.q.q.4.v.( X | 9XvXjXAX|.  - 4 @ - y 5 0 0 5 ; - 5 5 @ . .XmXyXkX8X} X / x.i.q.q.q.r.q.q.",
"0.0.q.0.q.q.u.u.i.Z.! X A.VXmXlXzX|.  3 3 +       . . .   X O O a 5 |.zXlXBXuXm.X / z.i.9.r.q.q.i.q.",
"q.0.q.q.q.q.0.i.9.z.M w A.0X9XgXjX@X3 2 < 1 O O         O * : O p a |.gX8XjX-Xm.e ,.z.8.7.z.s.8.i.q.",
"0.q.q.q.q.0.q.u.4.z.q.~ ^ | ` B =.V a m v $.#.=., O O 1 v *.*.#.&.v =.N.B Y | V / 9.p.4.8.k.a.8.q.q.",
"q.q.7.7.q.7.q.0.u.p.c.c.~ e X X O z -.g.@.-.x v , , : 1 d n &.%.g.=.s O     e w.i.i.k.0.u.i.i.9.q.i.",
"7.q.r.h.q.q.q.k.x.8.y.f.<.) [ g : m %.x > l i i %.&.m z l d i i +.;.&.p k / / z.z.i.k.l.i.8.u.i.q.i.",
"q.q.r.q.q.q.i.q.p.q.s.a.9.v.3.w : m $.x s > p i #.-.-.n p > > s +.;.x < f r.v.4.u.u.8.i.u.i.u.q.q.q.",
"q.q.7.7.q.q.8.i.u.y.p.a.9.s.9.w + d $.@.x x x x i u d d c @.@.+.+.;.c + 2 <.z.z.i.u.i.i.q.q.q.u.i.q.",
"q.r.q.q.q.q.q.q.s.i.p.p.8.i.5.j u z %.-.;.-.$.$.: : + u n $.$.$.;.;.n w j ( i.i.u.i.i.i.q.q.i.q.i.q.",
"q.q.q.q.0.q.q.q.p.p.s.i.q.i.0.W M b f l l l c v #.#.-.M z z z c x x n M ,.q.s.p.p.i.i.q.r.q.i.q.q.q.",
"q.q.q.q.q.q.q.r.i.i.p.i.i.k.k.6.5.k < < < < 1 u Z.Z.f.,.j < < : 2 2 h ,.s.i.i.u.i.p.a.r.r.q.q.9.q.i.",
"q.q.q.q.q.q.q.q.q.a.s.i.q.k.k.h.q./ h h b h M M e.e.9.( W h j f b h W i.r.q.i.i.p.p.i.r.r.q.0.j.q.q.",
"q.q.q.q.q.q.q.i.a.s.a.i.q.0.j.j.b.7.0.q.i.s.r.r.5.7.5.q.z.z.c.c.a.5.q.v.q.7.i.i.u.p.r.q.q.7.7.j.q.i.",
"i.q.q.q.q.q.q.a.s.z.i.q.8.6.6.j.7.7.q.q.q.i.q.7.5.7.h.h.7.7.9.q.z.9.q.d.9.6.k.p.u.p.q.q.7.q.0.0.q.i.",
"q.q.q.q.i.i.q.q.q.r.i.q.q.i.q.q.q.q.q.q.q.q.i.q.q.q.q.q.q.9.q.q.i.i.q.q.q.q.i.i.i.q.q.q.q.q.q.8.i.i.",
"q.i.i.q.q.q.q.i.i.q.q.i.q.q.q.i.q.q.q.q.i.q.q.q.i.q.q.q.q.q.i.q.i.q.q.q.q.q.q.q.i.q.i.q.q.q.q.i.q.q."
};
