/* XPM */
static char *_c776d9df0b14f5af138ad6f1f28a6b4qAv60HNrSvWuO2EP[] = {
/* columns rows colors chars-per-pixel */
"56 56 102 2 ",
"   c #170F0F",
".  c #171111",
"X  c #181211",
"o  c #2A5C4F",
"O  c #2C5E51",
"+  c #2F6053",
"@  c #316155",
"#  c #366559",
"$  c #38675B",
"%  c #3B695D",
"&  c #3F6C60",
"*  c #42675E",
"=  c #426D62",
"-  c #4D6D65",
";  c #467166",
":  c #4B756A",
">  c #4F786D",
",  c #50796F",
"<  c #5A6777",
"1  c #5D6779",
"2  c #5F687B",
"3  c #5F7671",
"4  c #547C72",
"5  c #62687D",
"6  c #697A77",
"7  c #697B78",
"8  c #5E847A",
"9  c #61877D",
"0  c #74807F",
"q  c #666981",
"w  c #6A6A84",
"e  c #6F6B88",
"r  c #736C8C",
"t  c #7C6E93",
"y  c #806F97",
"u  c #846F99",
"i  c #89719E",
"p  c #8E72A2",
"a  c #9173A4",
"s  c #9674A9",
"d  c #9A74AC",
"f  c #9F75B0",
"g  c #A777B7",
"h  c #668A81",
"j  c #6C8E85",
"k  c #768181",
"l  c #7C8384",
"z  c #6E9088",
"x  c #73948B",
"c  c #7D9B93",
"v  c #808587",
"b  c #838688",
"n  c #87898B",
"m  c #8C8C8F",
"M  c #8F8D90",
"N  c #938E93",
"B  c #819E97",
"V  c #979096",
"C  c #9D9399",
"Z  c #A2959D",
"A  c #A6989F",
"S  c #84A19A",
"D  c #A798A1",
"F  c #AC9AA3",
"G  c #B19DA6",
"H  c #B59FA9",
"J  c #8EA9A2",
"K  c #92ACA5",
"L  c #96AEA8",
"P  c #9BB2AC",
"I  c #B7A0AA",
"U  c #BBA1AD",
"Y  c #BFA4B0",
"T  c #A5BAB4",
"R  c #ABBEB9",
"E  c #C3A5B2",
"W  c #C8A7B5",
"Q  c #C7A8B4",
"!  c #C9A8B6",
"~  c #CDAAB9",
"^  c #D7AFBF",
"/  c #AEC1BC",
"(  c #B2C4BF",
")  c #B5C6C2",
"_  c #B7C8C4",
"`  c #BACAC6",
"'  c #C2D0CD",
"]  c #C6D3D0",
"[  c #CCD8D5",
"{  c #D0DBD8",
"}  c #D1DCD9",
"|  c #D7E0DE",
" . c #DAE3E1",
".. c #DBE3E1",
"X. c #DDE5E3",
"o. c #E2E9E7",
"O. c #E4EAE9",
"+. c #EAEFEE",
"@. c #EFF3F2",
"#. c #F2F5F5",
"$. c #FBFCFB",
"%. c white",
/* pixels */
"o o o o o o o o o o o o o o o o o o o o o o o o o o o o o o o o o o o o o o o o o o o o o o o o o o o o o o o o ",
"o o o o o o o o o o o o o o o o o o o o o o o o o o o o o o o o o o o o o o o o o o o o o o o o o o o o o o o o ",
"o o o o o o o o o o o o o o o o o o o o o o o o o o o o o o o o o o o O o o o o o o o o o o o o o o o o o o o o ",
"o o o o o o o o o o o o o o o o o o o o o o o o o o o o o o o o o o o O o o o o o o o o o o o o o o o o o o o o ",
"o o o o o o o o o o o o o o o o o o o o o o O O o O # = : x U T U P J 9 % o o o o o o o o o o o o o o o o o o o ",
"o o o o o o o o o o o o o o o o o o o o o o F O G 4 Y S E W ^ ^ ^ ~ Q I L S E 8 U o o o o o o o o o o o o o o o ",
"o o o o o o o o o o o o o o o o l O C O o H = H g E ^ ^ g g ^ g ^ g g ^ E I J 9 , U o o o I o o o o M o o o o o ",
"o o o o o o o o o o o o o o o o o C O H H ; : E g g g       g . g   g g ^ g F x U # o o I o I o o o o o o o o o ",
"o o o o o o o o o o o o o o o o O O F 4 U I I ~ g                     g g ^ g G z G $ H @ I # U o o Z o o o o o ",
"o o o o o o o o o o o o O k o o o H : F U g g                             g g E U E H > E W E E o o o o o o o o ",
"o o o o o o o o o o o o b @ C o @ H U g g   g                                 g ! g E g ^ ^ x ~ o I I o o o o o ",
"o o o o o o o o o o o b % Z % G = 4 I G g   . n a                     g H a .   g ^ g ^ g ^ ^ ^ ! Q E o o o o o ",
"o o o o o o o o o o o $ A , H 9 F H U g g . m O O u                 g U % @ i X   g ^ g ^ g ^ { ^ ~ E o o o o o ",
"o o o o o o o o o o N Z 4 4 G G H U g g   C F o o o y             f H $ o o O X     g g g ^ ^ ^ ^ ! o o o o o o ",
"o o o o o o o o o o & D F G d Y g g g     d C O o o o .         g U F + o o o X       g . ^ ^ g g @ o o o o o o ",
"o o o o o o o o - @ Z 4 G H U g ^ g           . . . .                 . X . .     g g   g g ^ g X.J o o o o o o ",
"o o o o o o o = o m % F 4 H g W g g                                                     ^ ^ g g ^ } 8 o o o o o ",
"o o o o o o o o l @ Z : G g ~ g ^ g                                 . y                 g g g ^ ^ ^ / O o o o o ",
"o o o o o o o o O N # G U E g ^ g             g g           . . . . r 0                   g ^ g ^ ^ o.x Y o o o ",
"o o o o o o o 6 b O Z U E g ^ g   g           g g ^ ^ 7 O o o O o o o r                   g g ^ g ^ ^ W o o o o ",
"o o o o o o o o O N % U E E g U g               g ^ N o o o o o o o e   . r t             g g ^ ^ ^ ^ ( U o o o ",
"o o o o o o o o o # H W g g g g g                 g b o o o o o o w       e   r y         g ^ g ^ %.^ ~ o o o o ",
"o o o o o o o o O H ~ g       g                     t o o o o o q     e r           g       g ^ g ^ $.K o o o o ",
"o o o o o o o o G K ^ g         a                                   g                 g     g g ^ ^ ^ x o o o o ",
"o o o o o o o o 9 ^ g             u                               q                     g   g ^ g ^ ^ j o o o o ",
"o o o o o o o $ ~ ^ g               i                             5                         g g ^ ^ @.W o o o o ",
"o o o o o o o W ` g                 p                           . 1 . . 1               g   g ^ g ^ ^ # o o o o ",
"o o o o o o o L ^ g                   s                         2 . . 1 X .   5             g g ^ ^ / O o o o o ",
"o o o o o o o ^ +.g                   g                           1 X < .   1       g g   g g g ^ ^ K o o o o o ",
"o o o o o o @ ) ^ g   g       g       g                           1 X < .   1       g       g g ^  .x o o o o o ",
"o o o o o O E ' ^ g   g     g   g     g                           2   < .   1       g     g g ^ ^ | G o o o o o ",
"o o o o o C 4 ^ ^ g   g     g     g g                               g   1     5     g     g ^ g ^ ^ o o o o o o ",
"o o o o o o U ^ ^ g   g     g     g                                 g   1     5   g     g ^ g ^ %.~ o o o o o o ",
"o o o o o Z O 8 ^ ^ g g     g g g ^ g                                 g a     q r       g g ^ ^ ^ x o o o o o o ",
"o o o o o o D o > ^ ^ ^ g g ^ g ^ g g g                                   w e         g g ^ g ^  .: o o o o o o ",
"o o o o o o o o F % E j ! ^ g ^ ^ ^ ^ g                                             g g ^ ^ ^ %.^ - o o o o o o ",
"o o o o o o o o o o @ H = ~ [ ^ ^ ^ g g   g                                         g g g ^ g ^ } % O o o o o o ",
"o o o o o o o o o o C o o O c ^ ^ g ^ g g g                                         g g ^ g ^ ^ ] o o o o o o o ",
"o o o o o o o o o o o o o o E J ^ ^ g ^ g g g                                         g g ^ g ^ { $ * o o o o o ",
"o o o o o o o o G o F o o o o E T ^ ^ g g g g g                                       g g ^ ^ %.^ j o o o o o o ",
"o o o o o O o I o E O G O o o o E ^ g ^ ^ ^ g g g g                                   g g g g ^ #.^ v o o o o o ",
"o o o o o O F o E = W @ E I F o o ~ ^ ^ ^ g ^ g g g                                     g ^ g %.^ ) O o o o o o ",
"o o o o o o o G @ ^ ^ ^ ^ ^ W G H ~ ^ ^ ^ ^ g ^ g g g g g g                             g g ^ g $.) o o o o o o ",
"o o o o o o o o U ^ ^ ^ ^ ^ ^ ^ ^ E : _ ^ ^ ^ g ^ g g g g g g                           g g g ^ g ` O o o o o o ",
"o o o o o o o V O U ^ ~ ^ ~ E E H G U z ^ ^ g ^ g ^ g ^ g g ^ g g g                       g g g ^ ^ W o o o o o ",
"o o o o o o o o m o C o F F o D O C O ~ ^ g ^ g ^ g ^ g ^ ^ ^ g ^ g g                       g g g ^ c o o o o o ",
"o o o o o o o o o l o o o o m o b O N U ^ ^ ^ ^ g ^ g ^ g ^ ^ ^ g ^ g g                     g g g ^ K O o o o o ",
"o o o o o o o o 6 o o o o o o o o O O D O ^ ^ ^ ^ ^ ^ ^ ^ ^ ^ ^ ^ g ^ g g g g   g   g   g   g ^ g  .R H o o o o ",
"o o o o o o o 3 o o o o o o o o o o b o Z O E 8 ^ ^ ^ ^ %.^ %.^ ^ ^ g ^ g g ^ ^ g g   g   g   g ^ ^ B # o o o o ",
"o o o o o o o o o o o o o o o o o o o m O C O I E O ; c ^  .^ O.^ ^ ^ ^ ^ ^ ^ ^ ^ ^ ^ g g   g ^ ^ g > o o o o o ",
"o o o o o o o o o o o o o o o o o o o o o o C o o o o o O $ ; h j j B P T ^ ) ^ ] ^ L B W g   g ^ B # l o o o o ",
"o o o o o o o o o o o o o o o o o o o o o o o o o o o o o o O O O O O o o o o O H o O o O O N H W W D O o o o o ",
"o o o o o o o o o o o o o o o o o o o o o o o o o o o o o o o o o o o o o o o o o o o o o o o o o o o o o o o o ",
"o o o o o o o o o o o o o o o o o o o o o o o o o o o o o o o o o o o o o o o o o o o o o o o o o o o o o o o o ",
"o o o o o o o o o o o o o o o o o o o o o o o o o o o o o o o o o o o o o o o o o o o o o o o o o o o o o o o o ",
"o o o o o o o o o o o o o o o o o o o o o o o o o o o o o o o o o o o o o o o o o o o o o o o o o o o o o o o o "
};
