/* XPM */
static char *_d7209c529a24f64bc38bd2076d17ed17Q246PaYOeOgz5Cu[] = {
/* columns rows colors chars-per-pixel */
"50 50 238 2 ",
"   c #050004",
".  c #0A0305",
"X  c #0E0A06",
"o  c #070109",
"O  c #0B010C",
"+  c #0D0A0A",
"@  c #11030E",
"#  c #130C0D",
"$  c #100B06",
"%  c #0F110C",
"&  c #14110D",
"*  c #18140D",
"=  c #0D0012",
"-  c #0E0615",
";  c #130313",
":  c #140B12",
">  c #190E13",
",  c #14011A",
"<  c #160B19",
"1  c #1B0C1B",
"2  c #1B051B",
"3  c #151213",
"4  c #1B1314",
"5  c #1C141B",
"6  c #1D191A",
"7  c #1B1615",
"8  c #210D1D",
"9  c #211A1D",
"0  c #22151E",
"q  c #23211E",
"w  c #1B0322",
"e  c #1C0A22",
"r  c #1E1721",
"t  c #210B22",
"y  c #220C28",
"u  c #28052C",
"i  c #231323",
"p  c #221922",
"a  c #261428",
"s  c #2B1C2C",
"d  c #2A1529",
"f  c #2D1C34",
"g  c #2B1333",
"h  c #331F34",
"j  c #351C3A",
"k  c #351938",
"l  c #2C0E30",
"z  c #2C242A",
"x  c #342339",
"c  c #382838",
"v  c #3A3539",
"b  c #302D2F",
"n  c #3B1D42",
"m  c #3E2442",
"M  c #3E2846",
"N  c #3F3045",
"B  c #401E41",
"V  c #442949",
"C  c #44344B",
"Z  c #473748",
"A  c #492C55",
"S  c #4D3A54",
"D  c #5A3E5C",
"F  c #533858",
"G  c #5A3C63",
"H  c #663E66",
"J  c #4B424B",
"K  c #574657",
"L  c #5B4363",
"P  c #5F4965",
"I  c #644B66",
"U  c #654C6A",
"Y  c #654667",
"T  c #645364",
"R  c #6A5768",
"E  c #6B4D73",
"W  c #664C71",
"Q  c #6C5574",
"!  c #725374",
"~  c #74537C",
"^  c #745B7B",
"/  c #7B5C79",
"(  c #755A74",
")  c #754E7B",
"_  c #7A637C",
"`  c #78677A",
"'  c #7E727C",
"]  c #6B616A",
"[  c #80627E",
"{  c #7B5B83",
"}  c #7D6685",
"|  c #835D89",
" . c #836B84",
".. c #856B8B",
"X. c #8A6D8C",
"o. c #836589",
"O. c #8A758A",
"+. c #8C6C94",
"@. c #896890",
"#. c #926D93",
"$. c #8C7692",
"%. c #937394",
"&. c #93759A",
"*. c #977999",
"=. c #A07E9F",
"-. c #9C7CA3",
";. c #9A76A2",
":. c #A27CA5",
">. c #8C868C",
",. c #998798",
"<. c #8F8490",
"1. c #A3889C",
"2. c #A09C9D",
"3. c #9E8BA4",
"4. c #A484A4",
"5. c #A38DA2",
"6. c #A584AB",
"7. c #AD8DAB",
"8. c #AA89A7",
"9. c #B28DAD",
"0. c #AC93AB",
"q. c #AA92A7",
"w. c #B493AC",
"e. c #B799AF",
"r. c #AC8DB2",
"t. c #B38CB2",
"y. c #B68CB5",
"u. c #B492B5",
"i. c #BB94B4",
"p. c #BC9BB5",
"a. c #BB94BB",
"s. c #BD9BBA",
"d. c #B598B8",
"f. c #AF90B2",
"g. c #AFAAAD",
"h. c #BEA4BA",
"j. c #BAA5B6",
"k. c #B5B2B4",
"l. c #B5A1AD",
"z. c #C09BB5",
"x. c #C39DBB",
"c. c #C396BF",
"v. c #C09CA8",
"b. c #C3A3BC",
"n. c #C7ACBD",
"m. c #C8A9B8",
"M. c #CAB2BA",
"N. c #D2B3BD",
"B. c #D0ABBC",
"V. c #BE9EC1",
"C. c #C49DC2",
"Z. c #C39BC5",
"A. c #C5A4C2",
"S. c #CDABC3",
"D. c #CDA5CA",
"F. c #C8A7C5",
"G. c #D2ADC6",
"H. c #CCB4C5",
"J. c #CCB5CB",
"K. c #CBBAC4",
"L. c #D2B4C4",
"P. c #DABBC6",
"I. c #D3B3CB",
"U. c #D7BACA",
"Y. c #DBBCD2",
"T. c #D5B7D2",
"R. c #CDBAD0",
"E. c #E3BCD4",
"W. c #DCC3CF",
"Q. c #D8C4CB",
"!. c #DBC4D3",
"~. c #DEC3DA",
"^. c #DCCCD9",
"/. c #DBC8D3",
"(. c #DED2DC",
"). c #DED3D7",
"_. c #C4C6C3",
"`. c #E3CAD5",
"'. c #E2C5DC",
"]. c #E3CCDB",
"[. c #E9CDDD",
"{. c #E6C7D7",
"}. c #E4D3DC",
"|. c #EAD4DB",
" X c #E4DADD",
".X c #EAD9DF",
"XX c #E5D3D5",
"oX c #F5CFDE",
"OX c #E9CBE2",
"+X c #E4D3E2",
"@X c #EBD3E3",
"#X c #EBDCE3",
"$X c #EDDDEA",
"%X c #E9D7E8",
"&X c #F3D7E1",
"*X c #F2DCE6",
"=X c #F3DCEC",
"-X c #F6D8E9",
";X c #F9DDF1",
":X c #ECE3E5",
">X c #EEE5EB",
",X c #EFEAEB",
"<X c gray89",
"1X c #F4E5E7",
"2X c #F4E4EC",
"3X c #FCE5ED",
"4X c #F4EBED",
"5X c #F9EAEE",
"6X c #F3E9E7",
"7X c #F2F1ED",
"8X c #F4E4F2",
"9X c #FBE6F3",
"0X c #F5ECF4",
"qX c #FCECF3",
"wX c #FEEDFA",
"eX c #FFE5FE",
"rX c #F5F3F3",
"tX c #FBF3F5",
"yX c #F6F8F4",
"uX c #FBFBF6",
"iX c #FEF5FC",
"pX c #F6FCFC",
"aX c #FFFFFB",
"sX c #FEFDFA",
"dX c #FFFBFF",
"fX c #FEFAFE",
"gX c #FBFEFE",
"hX c #FFFCFD",
"jX c #FFFFFD",
"kX c #FFFDFF",
"lX c #FDFEFF",
"zX c #FDFFFE",
"xX c #FEFEFE",
"cX c #FFFEFF",
"vX c #FEFFFF",
"bX c #FDFEFE",
"nX c #FEFDFE",
"mX c #F3F6F9",
/* pixels */
"sXsXjXjXjXdXgXjXjXgXgXdXdXjXjXgXgXyXpXgXjXgXjXjXgXdXjXuXyXjXsXsXiXuXfXdXjXjXpXmXgXjXdXdXjXdXgXjXjXjX",
"sXsXjXdXjXjXjXgXjXgXdXgXiXgXiXyXgXgXgXjXjXdXjXjXiXjXjXjXjXjXjXjXdXdXfXuXmXgXjXgXjXjXdXgXjXjXjXdXjXgX",
"jXjXjXjXjXgXgXjXjXjXjXjXgXgXfXdXyXsXsXsXjXjXjXfXiXfXfXdXfXfXdXdXfXfXjXjXdXjXjXjXdXgXiXgXjXjXjXuXjXgX",
"jXjXjXjXjXjXgXjXgXjXjXjXdXdXdXjXjXsXsXjXjXdXjXjXdXfX9XwXiXfXfXdXfXfXdXjXjXjXjXdXdXgXjXjXgXjXjXgXjXjX",
"jXjXjXjXgXjXgXgXjXjXjXjXjXsXuXfXuXdXjXtX5X#X4XqXdX$X'.].OX^.'.%XdXiXwX0X8XuXjXjXrXuXjXsXuXyXjXjXjXdX",
"jXjXgXgXjXgXgXgXjXjXjXjXsXtX4X6X}.tX2X2X Xk.N.W.K.e.q.m.F.e.u.h.}.%X0XwX#X2XdXjX1X6XjXsX7X4XjXjXjXjX",
"gXjXgXjXgXgXgXjXjXsXsXsXjXdX5X:X X9X}.2X=Xe.1.,.R K R  .O./  .q.p.h.].8X8X8XqX1X.X.XiXsX,X,XjXjXjXgX",
"jXgXjXgXgXgXjXsXsXuXuXsXdXjXfXqX-X@XS.'.@X,.K h @ @ ; h d 8 x Q 0.5.h.].$XwXwX[..X|.3XfX>X4XjXuXjXjX",
"gXgXgXgXjXjXjXsXsXsXjX:X#XdXdX!.;X'.b.1.( @ @ 8 > d ; @ i 2 O 2 ;  .7.J.L.j.|.9XL.n.].fXfX0XdXjXjXjX",
"jXjXjXdXgXuXsXuXsXfX4XXX/.qXfX=Xb.9.[ F T Z s   0 1 O ; 0 < > x c j t [ I.h.w.1.P.{.[.].K.(.dXdXdXjX",
"jXjXjXjXjXfXsXsXjX2X1X2X#X=X;X-XE.a.( D 1.p.`   : ; 0 9 O   b ` $X5.h c *.b.m.p.w.[.[.n.b.+XdXjXdXjX",
"gXjXjXjXjXsXsXsXfX X#XiX;X'.Y.T.I.4.o.O.=XdX).R 7 # 9 :   p ' (.dXdXq., 8 X.p.i.9.'.!.F.Q.qXdXdXjXgX",
"gXdXjXjXdXfXfXfXdXXXW.}.Y.b.x.p.%.Y R 5.jXjXjX>Xv # + # v >.).iXmXjX$Xe @ I [ / x.G.z.S.;XfXdXjXdXjX",
"dXdXdXfXuXrX6X:XfX X!.Y.A.i.9.8.D e x T ,.,.2.g.b # : 8 Z ' O.,.g.k.>.p c  .Y / C.i.7.OXfXdXdXjXjXjX",
"jXdXfXdXfXtX6X X=X*X-XY.b.a.a.4.a O O   :   X $ & $ 0 $ @ O . 8 +   o O J T j X.A.u.e.=XdXdXsX7XjXgX",
"jXgXgXdXsXjX4X XXX=X;XU.9.i.C.9.a ; z : i z z 4     $   . @ 8 ` K q b : ; O = 8.7.8.8.I.=XqXjXsXdXjX",
"pXgXgXgXjXdXfXqXXX&X`.x.w.c.:.Y ; : : < P 1.( t 2 c J v b v } K.J = o e r s a = &.s.s.x.{.3X6X6XdXjX",
"pXgXgXjXgX7X XQ.3X`.L.B.A.a.#.G i 7 5 t K 8.d.d.+XdXdXuXjXjX8Xj.e J N o o < e , ..u.x.b.P.XX|.5XjXjX",
"gXuXgXjXjXjXdXdX9X[.G.x.C.Z.;.G > : > O d I 5.$X%XfXdXjXgXgX3.x e } O.] N 5 - w +.a.F.S.W.W.XXtXdXjX",
"jXuXyXyXdXdXdXdX!.'.w.U E 6.@.g = : 6 ; @ y K q.dXdXsXjXpX<.N N { K v R ] J N - / 7.A.B.`.&X1XfXjXgX",
"jXjXjXjXjXfX0X%X].J._ y w G E f o   5 5 - ; i S _.k._._.>.v C ..Q x O O 5 K  .m n #.i.z.`.9XiXjXdXjX",
"jXjXjXjXjXdXdXwX9X3.Z t 2 h K Q r   + 5 & : # :   + %   o C P n = e s 5 o < K ..l %.A.z.L.=XiXdXjXjX",
"jXjXuXmXuXfXiX0XK.T 8 1 8 # z K R < # 6 3 6 5 + v b b + r $...- 2 O 2 s c < = U B =.D.z.L.%XtXjXdXjX",
"dXjXjXdXdXfX>X(.,.K i 8 8 # O O <.r o 3 . & 6 : % . q 6 < P { , ..x ; o r e , ^ A %.z.w.U.:XmXdXjXjX",
"jXfXfXdXdXdX0X(.,.o e = r   7 # Z $.. : 3 # > # $ 7 # : Z ..w +.L O T T i j e A F #.7.p.+XdXjXjXjXgX",
"dXuXdXjXjXdXwX$X,.e A = 1 z c . s *.O 5 6 X * * + 6 6 > f } A &.S g _ c O ^ } A D *.p.L.8XdXjXgXjXjX",
"dXdXjXjXdXgX0X+X<.A @.w V / P e g  .O > 6 . 8 * # 0 7 < = ^ } @.N N $.e = $.&., Y %.i.Y.qXdXjXgXgXjX",
"dXjXjXjX0X>X+XR.&.F ;.u E @.K U U ^ , 5 6 4 * > > 7 @ 5 = L @.W W M } N - } { , #.:.p.U.2XtXmXgXjXjX",
"dXdXjXfX,X X/.J.&.G { w ) ) n #.! f ; < # 7 $ * > 5 o r < x Q Q } y S } F G H G c.z.F.`.3XrXmXgXjXgX",
"iXgXjXjX,X#X+X!.y.{ @.u @.| Y i.Q w ; < X # . 9 # 7 + r < - N ^ 3.g F -.{ n M | c.z.G.&XtXsXsXgXgXdX",
"pXgXjXjXrX4X8X$X~.y.D.H y.z.9.D.r.Q i 5 9 X * $ > 4 3 3 3 - f K { W { { G M G ;.a.x.I.-XiXsXgXgXjXjX",
"dXdXjXjXrXtXiX9X;XE.;X9.x.c.S.b.V.*.O o 9 . p . * # 3 % 3 r - - o P L - , G ;.Z.T.Y.[.3XsXsXgXmXgXjX",
"jXgXgXuXjXjXdXfXfX8X@X@X-X[.L.m.r...Q U i o p 6 # & * * $ $ 7 9 4 @ ; e y P V.;.Z.r.U.fXfXsXsXpXjXjX",
"gXgXgXdXjXdXjXfXiX2XqXfXdX.XM.e.A.6.&.} M = 5 ; # # $ * 7 7 * & * # : i e G r.V.V.u.{.fXfXuXgXgXgXjX",
"gXgXgXjXjXjXuX0XdX5XtXfXqX.XXXL.s.u.8.*.K l i = > p * & & + . & 4 $ 3 < O g { -.V.x.@XwX5X0XgXgXgXjX",
"pXpXgXjXjXuX,X<X2X XiXdXqX3X3XL.i.z.c.z.&.! L x , d 5 : r 6 % 6 & & 3 6 - y E r.a.C.OX;X+X>XjXjXjXjX",
"gXsXgXjXdX0X#X)..XXX1X3X&X3XtXP.z.x.c.c.V.:.#.Y , w = o e 5 + o % % 3 7 3 < S 6.y.Z.OX;X2XwXjXgXgXjX",
"jXgXjXjXdXrX#XXX.XQ.Q.M.m.`.-XP.B.P.z.z.V.V.:.) { ^ L m < - r r 3 % & % #   d _ f.V.Y.eXdXdXjXjXdXjX",
"jXjXdXjXdXtX2X.XM.m.N.N.N.N.N.v.oX;XE.c.Z.Z.a.;.:.-.;.I e = < - 3 3 % % q 5 a / r.f.F.%XiXdXjXjXjXjX",
"uXiXdXdXdXiX5X1XM.M.B.N.N.m.N.N.-X9XE.c.:.Z.c.t.a.:.r.r.$.{ F = 5 3 3 . 9 # O F 4.&.5.A.^.:XyXjXjXgX",
"iXjXjXfXdXdXqX X.X.X/.Q.`.&X|.P.&XP.m.p.z.i.i.c.y.z.D.D.i.7.%.D O @ $ > > 2 ; , n &.4.,.^.dXjXsXjXjX",
"uXjXjXjXjXjXdX:X.XtXdXqX&X.X3X3X&XW.B.L.S.x.p.x.z.z.G.U.A.h.u.%.m k d 8 8 8 k n u | 6.V.$XdXsXjXdXjX",
"gXjXjXgXjXdX0X<XsXjXjXdXdXdXjXfX.X]././.Y.H.m.B.B.G.E.Y.b.p.p.7.-.&. .( R R ! ) G ;.y.A.%XwXuXjXgXjX",
"gXgXgXpXsXmX7X<XjXjXdXdXjXjXsXtX1X#X#X%X].W.!.`.&X[.@X[.L.h.s.A.u.d.z.e.8.=.X.{ { ;.y.D.OX8XmXjXjXjX",
"gXgXjXjXjXjXgXgXgXjXjXgXuXsXgXjXtXqX5X1X$X#X2XwXtX5X3XtX2X@X}.OXR.T.~.!.!.J.A.d.D ~ -.R.8XiXfXdXdXjX",
"jXjXjXjXjXdXjXjXgXjXjXgXmXmXgXjXjXsXiXtXmXiXjXjXjXfXiXdXdXjXfXfXfXfXiXmX0XwXiXiXd.8.p.!.+X8XdXdXjXjX",
"dXjXdXdXdXuXiXyXdXdXuXgXjXjXjXjXdXdXdXjXdXjXgXgXjXjXsXsXsXsXfXdXjXsXuX7X7XyXdXfXfXeX=X$X(.:XjXjXgXjX",
"jXdXdXjXjXjXdXdXgXuXgXjXjXgXgXjXuXdXjXjXjXgXgXmXgXgXjXuXuXuXuXsXyXuXsXsXsXsXdXfXdXfXdXdXdXjXjXgXdXjX",
"jXdXdXjXjXdXjXjXjXgXjXdXgXjXgXjXdXjXjXjXgXjXgXjXjXgXjXgXjXdXjXjXsXjXgXgXjXjXjXjXdXdXjXdXjXjXjXjXjXgX",
"jXjXjXjXjXjXdXgXjXjXjXjXjXjXjXjXdXjXjXjXdXjXjXjXjXgXjXjXjXjXjXgXjXjXjXjXjXjXgXjXjXjXjXjXgXjXdXjXjXjX"
};
